<?xml version="1.0" standalone="no"?>
<!DOCTYPE svg PUBLIC "-//W3C//DTD SVG 20010904//EN"
 "http://www.w3.org/TR/2001/REC-SVG-20010904/DTD/svg10.dtd">
<svg version="1.0" xmlns="http://www.w3.org/2000/svg"
 width="500.000000pt" height="500.000000pt" viewBox="0 0 500.000000 500.000000"
 preserveAspectRatio="xMidYMid meet">
<metadata>
Created by potrace 1.11, written by Peter Selinger 2001-2013
</metadata>
<g transform="translate(0.000000,500.000000) scale(0.100000,-0.100000)"
fill="#000000" stroke="none">
<path d="M3087 3888 c-34 -50 -44 -73 -97 -211 -28 -70 -54 -91 -107 -83 -72
12 -76 -3 -29 -131 20 -55 26 -92 26 -152 l0 -79 -157 -6 c-87 -4 -180 -9
-206 -11 -56 -6 -154 -32 -162 -45 -2 -4 -22 -11 -42 -15 -81 -14 -113 -28
-113 -47 0 -16 5 -18 38 -13 20 4 51 12 69 18 39 13 183 -6 258 -34 28 -11 56
-19 63 -19 7 0 47 -16 89 -35 94 -43 192 -139 241 -236 18 -35 55 -107 83
-159 67 -126 81 -164 66 -179 -9 -9 -8 -15 6 -22 15 -9 17 -26 17 -132 0 -148
-8 -165 -72 -165 -24 1 -62 -2 -85 -6 -36 -7 -42 -5 -48 13 -3 11 -19 34 -34
50 l-28 30 -53 -18 c-29 -10 -56 -24 -60 -30 -4 -7 -17 -10 -31 -6 -33 8 -64
-24 -55 -59 3 -13 2 -26 -3 -28 -5 -2 -11 -10 -13 -18 -4 -20 -28 -29 -54 -20
-11 5 -81 6 -155 3 -74 -3 -219 -4 -324 -3 -104 2 -224 3 -265 3 -70 1 -241
-37 -292 -64 -10 -5 -24 -9 -32 -9 -8 0 -21 -6 -28 -14 -8 -8 -68 -32 -134
-54 -65 -23 -144 -51 -174 -62 -30 -12 -75 -28 -100 -36 -43 -15 -213 -122
-255 -161 -11 -10 -40 -34 -65 -53 -25 -19 -47 -37 -50 -40 -3 -3 -29 -21 -58
-39 -28 -18 -52 -39 -52 -46 0 -8 -9 -17 -20 -20 -11 -3 -20 -11 -20 -16 0 -5
-7 -9 -15 -9 -8 0 -15 -4 -15 -10 0 -5 -5 -10 -11 -10 -7 0 -34 -13 -61 -30
-26 -16 -53 -30 -59 -30 -6 0 -28 -13 -48 -28 -20 -15 -58 -39 -86 -52 -27
-14 -70 -38 -95 -55 -24 -16 -61 -39 -81 -50 -20 -11 -50 -29 -67 -40 l-32
-20 0 -277 0 -278 2045 0 c1389 0 2045 3 2045 10 0 6 16 33 35 61 l35 51 0
248 c0 272 -4 254 66 293 18 9 47 32 66 49 19 18 54 45 77 61 59 39 79 107 48
167 -17 33 -102 74 -185 89 -37 7 -74 18 -83 24 -9 7 -18 33 -22 58 -3 25 -24
101 -47 170 -22 68 -46 142 -53 164 -7 24 -21 44 -34 50 -23 10 -36 35 -48 90
-8 40 -28 85 -37 85 -5 0 -8 6 -8 13 0 24 -63 51 -101 43 -74 -15 -84 -13 -87
17 -7 61 -141 88 -228 46 -24 -11 -73 -52 -110 -92 -55 -58 -107 -97 -129 -97
-1 0 8 44 20 98 52 220 102 304 305 518 111 117 162 179 153 188 -30 30 -148
-52 -344 -239 -84 -80 -126 -111 -136 -101 -16 15 71 199 140 295 40 55 99
138 131 183 33 46 86 112 119 147 32 35 72 82 88 105 41 56 76 99 129 160 25
28 65 76 90 106 24 30 81 92 126 137 83 84 86 93 25 93 -40 0 -144 -38 -190
-68 -33 -23 -263 -235 -311 -288 -8 -9 -53 -56 -100 -105 -157 -164 -157 -162
-152 -313 l3 -99 -49 -101 c-27 -56 -53 -114 -58 -131 -8 -27 -9 -25 -12 24
-3 47 2 64 36 130 44 85 63 156 59 216 -3 44 -29 110 -54 137 -15 17 -15 25 0
111 10 51 17 134 17 184 0 77 -5 105 -29 171 -36 96 -108 242 -120 242 -5 0
-25 -24 -44 -52z m-12 -1104 c25 -42 65 -161 65 -191 0 -26 -21 -12 -36 25
-73 169 -79 186 -69 202 9 15 11 14 40 -36z"/>
</g>
</svg>
